<?xml version="1.0" encoding="utf-8"?>
<!-- Generator: Adobe Illustrator 23.0.1, SVG Export Plug-In . SVG Version: 6.00 Build 0)  -->
<svg version="1.1" id="Layer_1" xmlns="http://www.w3.org/2000/svg" xmlns:xlink="http://www.w3.org/1999/xlink" x="0px" y="0px"
	 viewBox="0 0 1449.84 815.84" style="enable-background:new 0 0 1449.84 815.84;" xml:space="preserve">
<style type="text/css">
	.st0{fill:#153859;}
	.st1{fill:#191819;}
	.st2{fill:#FFFFFF;}
	.st3{font-family:'Couture-Bold';}
	.st4{font-size:36.5602px;}
</style>
<path class="st0" d="M444.57,330.37c19.59,0,37.04,9.12,48.37,23.34l-32.66-85.39c-2.74-7.16-10.83-10.77-17.99-8.03l-73.23,28.01
	c-7.16,2.74-10.77,10.83-8.04,17.99l25.12,65.68C394.53,347.76,417.51,330.37,444.57,330.37z"/>
<path class="st0" d="M1192.51-704.44c-6.41,0-11.59-5.2-11.59-11.61c0-6.35,5.19-11.61,11.59-11.61c4.39,0,8.11,2.44,10.06,5.93
	c-1.95,1.03-2.12,1.12-4.29,2.18c-1.12-1.96-3.3-3.3-5.77-3.3c-3.75,0-6.79,3.08-6.79,6.8c0,3.75,3.04,6.8,6.79,6.8
	c2.56,0,4.8-1.38,5.96-3.56c2.18,1.12,2.24,1.25,4.29,2.18C1200.81-706.94,1197.03-704.44,1192.51-704.44z"/>
<path class="st0" d="M1207-727.4h5.03v22.9H1207V-727.4z"/>
<path class="st0" d="M1221.51-720.31v15.84h-4.39v-22.99h5.76l10.22,14.3v-14.3h4.26v22.99h-4.26L1221.51-720.31z"/>
<path class="st0" d="M1246.73-713.64v4.88h12.91v4.23h-17.78v-22.96h16.69v4.23h-11.82v5.17h10.44v4.46H1246.73z"/>
<path class="st0" d="M1264.86-727.4h6.53l5.29,10.1l5.19-10.1h6.63v22.9h-4.71v-16.2h-0.07l-5.09,10.42h-3.88l-5.06-10.26h-0.07
	v16.04h-4.77V-727.4z"/>
<path class="st0" d="M1292.33-704.5l10.38-22.87h5.06l10.22,22.87h-4.87l-2.24-5.07h-11.56l-2.4,5.07H1292.33z M1305.3-723.07
	l-3.84,8.85h7.59l-3.72-8.85H1305.3z"/>
<path class="st0" d="M1324.91-723.17h-7.27v-4.2h19.51v4.24h-7.21v18.63h-5.03V-723.17z"/>
<path class="st0" d="M1341.16-727.4h5.03v22.9h-5.03V-727.4z"/>
<path class="st0" d="M1362.11-704.44c-6.41,0-11.59-5.2-11.59-11.61c0-6.35,5.19-11.61,11.59-11.61c4.39,0,8.11,2.44,10.06,5.93
	c-1.95,1.03-2.12,1.12-4.29,2.18c-1.12-1.96-3.3-3.3-5.77-3.3c-3.75,0-6.79,3.08-6.79,6.8c0,3.75,3.04,6.8,6.79,6.8
	c2.56,0,4.8-1.38,5.96-3.56c2.18,1.12,2.24,1.25,4.29,2.18C1370.41-706.94,1366.63-704.44,1362.11-704.44z"/>
<path class="st0" d="M1387.43-727.4h5.03v22.9h-5.03V-727.4z"/>
<path class="st0" d="M1401.94-720.31v15.84h-4.39v-22.99h5.76l10.22,14.3v-14.3h4.26v22.99h-4.26L1401.94-720.31z"/>
<path class="st0" d="M1428.66-723.17h-7.27v-4.2h19.51v4.24h-7.21v18.63h-5.03V-723.17z"/>
<path class="st0" d="M1449.2-713.64v4.88h12.91v4.23h-17.78v-22.96h16.69v4.23h-11.82v5.17h10.44v4.46H1449.2z"/>
<path class="st0" d="M1479.83-712.97l6.41,8.5h-6.15l-5.77-8.24h-2.47v8.24h-5.06v-22.93h10.31c5.77,0,7.98,3.62,7.98,7.35
	c0,3.11-1.63,6.25-5.44,7.09H1479.83z M1471.85-723.49v6.9h3.91c2.4,0,4.39-0.55,4.39-3.46c0-2.98-1.98-3.43-4.39-3.43H1471.85z"/>
<path class="st0" d="M1501.88-704.5h-5.67l-7.43-22.9h5.19l5.09,16.1h0.07l5.15-16.1h5.19L1501.88-704.5z"/>
<path class="st0" d="M1512.55-727.4h5.03v22.9h-5.03V-727.4z"/>
<path class="st0" d="M1527.41-713.64v4.88h12.91v4.23h-17.78v-22.96h16.69v4.23h-11.82v5.17h10.44v4.46H1527.41z"/>
<path class="st0" d="M1566.79-704.5h-5l-3.88-15.59h-0.06l-3.81,15.59h-5.09l-6.05-22.9h5.03l3.23,15.65l0.45-0.06l3.97-15.59h4.71
	l3.91,15.78l0.45,0.03l3.36-15.81h4.93L1566.79-704.5z"/>
<path class="st1" d="M445.22,366.27c10.34,0,18.72,4.76,23,13.07l0.31,0.6l19.25-11.21l-0.33-0.55
	c-8.53-14.27-23.92-22.45-42.23-22.45c-27.23,0-48.57,20.13-48.57,45.83c0,26.87,20.88,47.14,48.57,47.14
	c17.53,0,33.22-8.73,41.97-23.37l0.33-0.56l-19.23-11.07l-0.31,0.57c-4.57,8.32-12.87,13.08-22.75,13.08
	c-14.39,0-25.67-11.33-25.67-25.8C419.55,376.9,430.34,366.27,445.22,366.27z"/>
<rect x="495.03" y="366.38" class="st1" width="18.03" height="70.74"/>
<polygon class="st1" points="572.3,407.64 538.29,366.61 538.1,366.38 520.31,366.38 520.31,437.12 538.44,437.12 538.44,395.76 
	572.64,437.12 590.43,437.12 590.43,366.38 572.3,366.38 "/>
<polygon class="st1" points="597.68,437.12 652.17,437.12 652.17,420.32 615.71,420.32 615.71,409.64 646.15,409.64 646.15,393.86 
	615.71,393.86 615.71,383.19 652.17,383.19 652.17,366.38 597.68,366.38 "/>
<polygon class="st1" points="702.86,416.5 679.23,366.75 679.05,366.38 659.42,366.38 659.42,437.12 677.45,437.12 677.45,403.9 
	693.05,437.12 712.56,437.12 728.17,403.9 728.17,437.12 746.3,437.12 746.3,366.38 726.56,366.38 "/>
<path class="st1" d="M803.52,366.77l-0.16-0.39h-19.53l-30.27,70.74h19.16l4.6-10.83h32.66l4.49,10.83h19.27L803.52,366.77z
	 M803.61,411.33h-19.94l10.06-23.66L803.61,411.33z"/>
<polygon class="st1" points="992.99,419.09 956.53,419.09 956.53,408.42 986.97,408.42 986.97,392.63 956.53,392.63 956.53,381.96 
	992.99,381.96 992.99,365.16 938.49,365.16 938.49,435.89 992.99,435.89 "/>
<path class="st1" d="M1032.44,437.12c13.8,0,26.14-6.87,33.03-18.39l0.33-0.56l-15.33-8.82l-0.31,0.57
	c-3.56,6.48-10.02,10.19-17.72,10.19c-11.21,0-20-8.83-20-20.1c0-11.41,8.41-19.69,20-19.69c8.05,0,14.58,3.71,17.92,10.18l0.31,0.6
	l15.34-8.94l-0.33-0.55c-6.72-11.23-18.83-17.68-33.24-17.68c-21.44,0-38.23,15.85-38.23,36.08
	C994.21,421.17,1010.64,437.12,1032.44,437.12z"/>
<polygon class="st1" points="1121.25,435.89 1144.58,435.89 1115.15,393.82 1139.63,365.16 1116.91,365.16 1091.29,394.63 
	1091.29,365.16 1073.25,365.16 1073.25,435.89 1091.29,435.89 1091.29,419.88 1102.52,407.59 1121.07,435.61 "/>
<path class="st1" d="M882.51,344.15l-41.54,0.14v92.83h41.23c28.88,0,49.05-19.17,49.05-46.62
	C931.25,362.78,911.66,344.15,882.51,344.15z M882.2,415.31h-17.8v-49.36h17.8c15.88,0,25.35,9.18,25.35,24.54
	C907.55,405.34,897.36,415.31,882.2,415.31z"/>
<path class="st2" d="M356.6,562.12"/>
<path class="st0" d="M385.61,407.79l-40.44-105.72c-2.74-7.16,0.88-15.25,8.03-17.99l70.99-27.16c-0.01-0.01-0.02-0.01-0.02-0.02
	l-0.05,0.05l-73.74,19.89l-8.24,2.22l-1.11,0.3c-2.72,0.78-9.65,3.13-12.44,7.16c-0.11,0.18-0.23,0.35-0.33,0.53
	c-0.01,0.02-0.02,0.04-0.03,0.05c-1.05,1.88-1.66,3.99-1.77,6.17c0.1,1.69,0.86,5.59,4.19,14.29l37.13,97.06
	c2.74,7.16,10.83,10.77,17.99,8.03l1.54-0.59l-1.51-3.9C385.74,408.04,385.66,407.92,385.61,407.79z"/>
<text transform="matrix(1.0029 0 0 1 493.3322 483.2388)" class="st0 st3 st4">SHOOT INTERVIEW LIKE A PRO</text>
</svg>
